<svg xmlns="http://www.w3.org/2000/svg" viewBox="0 0 1440 320">
  <path fill="#00cba9" fill-opacity="1" d="M0,32L48,42.7C96,53,192,75,288,106.7C384,139,480,181,576,181.3C672,181,768,139,864,112C960,85,1056,75,1152,101.3C1248,128,1344,192,1392,224L1440,256L1440,320L1392,320C1344,320,1248,320,1152,320C1056,320,960,320,864,320C768,320,672,320,576,320C480,320,384,320,288,320C192,320,96,320,48,320L0,320Z" id="path-0" transform="scale(1) translate(5.362999999999943,6.7830000000000155) rotate(90 255.85000000000002,185.38125610351562)" style="position: relative; left: 892.18px; top: 313.783px;"></path>
</svg>